inDegrees=yes
name=ik_S44_A01_T01
DataType=double
version=3
OpenSimVersion=4.3-2021-08-27-4bc7ad9
endheader
time	pelvis_tilt	pelvis_list	pelvis_rotation	pelvis_tx	pelvis_ty	pelvis_tz	hip_flexion_r	hip_adduction_r	hip_rotation_r	knee_angle_r	knee_angle_r_beta	ankle_angle_r	subtalar_angle_r	mtp_angle_r	hip_flexion_l	hip_adduction_l	hip_rotation_l	knee_angle_l	knee_angle_l_beta	ankle_angle_l	subtalar_angle_l	mtp_angle_l	lumbar_extension	lumbar_bending	lumbar_rotation	arm_flex_r	arm_add_r	arm_rot_r	elbow_flex_r	pro_sup_r	wrist_flex_r	wrist_dev_r	arm_flex_l	arm_add_l	arm_rot_l	elbow_flex_l	pro_sup_l	wrist_flex_l	wrist_dev_l
27.5799999999995	-0.6204233125722138	0.8424919166382751	90.0907004785625	0	0.9399999999999999	0	-1.930333199219818	-6.52997321780133	-10.47144695693827	2.990185883346556	0.05218858891105248	0	0	0	6.058702051934089	-7.419950136855392	-7.770027857484201	6.078955796511279	0.1060977937323162	0	0	0	0	0	0	41.88785714207367	-41.88785714207367	4.951773427119571	84.31794084796192	85.04822684531553	0	0	41.88785714207367	-41.88785714207367	4.951773427119571	84.31794084796192	85.04822684530637	0	0
27.5999999999995	-0.2947508407038382	0.4132555967035103	89.24351552861435	0	0.9399999999999999	0	1.195841761679918	-5.875678550279663	-9.980732188481745	6.73517148640412	0.1175509181241924	0	0	0	5.535102854481289	-7.108663543456422	-7.401387788700915	5.036160849244725	0.08789758847935424	0	0	0	0	0	0	41.91115526771434	-41.91115526771434	4.95239004040001	84.32666172944951	85.04761023205995	0	0	41.91115526771434	-41.91115526771434	4.95239004040001	84.32666172944951	85.047610232051	0	0
27.6199999999995	-0.1373274531205215	0.1974861861621089	88.63875841004729	0	0.9399999999999999	0	4.660756029909299	-6.340769826476182	-7.094724580157199	12.56079800021483	0.2192272817816682	0	0	0	5.163025958344588	-7.047093819791937	-7.700853140874188	4.478752958467248	0.07816898550869032	0	0	0	0	0	0	41.94749485970338	-41.94749485970338	4.953344034745792	84.34015423722522	85.04665623775259	0	0	41.94749485970338	-41.94749485970338	4.953344034745792	84.34015423722522	85.04665623774379	0	0
27.6399999999995	-0.09041441166047212	-0.2756623907794318	87.25370487085485	0	0.9399999999999999	0	7.516397043943979	-7.379912273392105	-5.089237382914112	17.38890717393413	0.3034936835088129	0	0	0	5.326996384556307	-6.962351490959361	-8.145115925298088	4.19852440844113	0.07327807465264492	0	0	0	0	0	0	41.94897701423971	-41.94897701423971	4.953389507689804	84.34079738381	85.0466107648105	0	0	41.94897701423971	-41.94897701423971	4.953389507689804	84.34079738381	85.04661076480173	0	0
27.6599999999995	-0.3514852192445238	-0.7873292861370007	85.92638081439163	0	0.9399999999999999	0	9.571347685884808	-8.302567477178561	-6.360626668839045	20.47628193477292	0.3573785383284223	0	0	0	5.684456758892922	-6.512149796251551	-8.38550488130179	3.897752287127043	0.06802861083750629	0	0	0	0	0	0	41.95954162821288	-41.95954162821288	4.953671088631113	84.34477984158055	85.0463291838806	0	0	41.95954162821288	-41.95954162821288	4.953671088631113	84.34477984158055	85.04632918387186	0	0
27.6799999999995	-0.688633259628621	-0.8843300567756273	85.07307451692516	0	0.9399999999999999	0	9.981673864765403	-8.953442805090612	-10.14927636447259	20.76907214546994	0.3624886915226931	0	0	0	5.587648371798444	-5.978940084701797	-8.625551052002866	3.346177012383261	0.05840180622063498	0	0	0	0	0	0	41.9661904426267	-41.9661904426267	4.95385167861765	84.34733397037263	85.04614859390136	0	0	41.9661904426267	-41.9661904426267	4.95385167861765	84.34733397037263	85.04614859389267	0	0
27.6999999999995	-0.7500834552732284	-0.1975350466475334	84.88822106298635	0	0.9399999999999999	0	9.116463520929875	-9.426387372404585	-10.72231394099309	19.63360402472746	0.3426710342643045	0	0	0	4.468305746492749	-5.638258309313237	-9.036301016971761	2.7104790480353	0.04730678369453754	0	0	0	0	0	0	41.96703121366903	-41.96703121366903	4.953877414776792	84.34769796939952	85.04612285774323	0	0	41.96703121366903	-41.96703121366903	4.953877414776792	84.34769796939952	85.04612285773456	0	0
27.7199999999995	-0.8165267068241071	-0.3173906826604537	85.76894594106199	0	0.9399999999999999	0	8.64781705438692	-8.715791108289562	-8.751151208547219	16.69044259451538	0.2913031768893982	0	0	0	4.100286768024356	-5.364393196665461	-8.580154384525072	2.069952795987942	0.03612749165085205	0	0	0	0	0	0	41.96924779084777	-41.96924779084777	4.953941367791393	84.34860248049098	85.0460589047313	0	0	41.96924779084777	-41.96924779084777	4.953941367791393	84.34860248049098	85.04605890472257	0	0
27.7399999999995	-0.810652579889089	-0.3186073391697994	85.74698857746147	0	0.9399999999999999	0	9.034699926668621	-8.141671669926099	-7.546989507251169	16.22231236449964	0.2831327630475052	0	0	0	3.623480051921578	-5.33007265280182	-8.932833289550681	1.541338391092763	0.02690142981196076	0	0	0	0	0	0	41.96980852052706	-41.96980852052706	4.953958543266586	84.34884540158717	85.04604172925684	0	0	41.96980852052706	-41.96980852052706	4.953958543266586	84.34884540158717	85.0460417292481	0	0
27.7599999999995	-0.8174873309082645	-0.386149506820206	86.08930408400052	0	0.9399999999999999	0	8.856393718677896	-7.25406274647498	-7.156042647862407	14.69020083788963	0.2563923724004037	0	0	0	3.161048790240016	-5.35733136862759	-8.958779116135316	0.9174317454193054	0.01601220461988528	0	0	0	0	0	0	41.97034388447369	-41.97034388447369	4.953974925084857	84.34907709756983	85.04602534743924	0	0	41.97034388447369	-41.97034388447369	4.953974925084857	84.34907709756983	85.04602534743051	0	0
27.7799999999995	-1.037663104497714	0.2146054934614029	87.42687257444777	0	0.9399999999999999	0	7.430845702944272	-7.616990756311415	-7.568974016670965	13.25657112937598	0.231370813732434	0	0	0	2.050217099020002	-5.123478086507949	-8.418763407770737	0.1675622669008989	0.0029245132595262	0	0	0	0	0	0	41.97119927647904	-41.97119927647904	4.954001105190263	84.34944737546678	85.04599916733493	0	0	41.97119927647904	-41.97119927647904	4.954001105190263	84.34944737546678	85.0459991673262	0	0
27.7999999999995	-1.167107882579866	0.3954370677861519	87.82024170308162	0	0.9399999999999999	0	6.090756270593994	-8.106591476448097	-8.148583852379133	9.972033283404185	0.1740448139138638	0	0	0	1.447404616901641	-5.116841714233361	-8.571083424939363	-0.1279379510155158	-0.002232938483475974	0	0	0	0	0	0	41.97189912888559	-41.97189912888559	4.954022384852302	84.34974834374941	85.04597788767371	0	0	41.97189912888559	-41.97189912888559	4.954022384852302	84.34974834374941	85.04597788766499	0	0
27.8199999999995	-1.295266973810802	0.3679296987684615	88.13974741583976	0	0.9399999999999999	0	5.974466688726967	-8.164899544357853	-7.246200604236477	11.67560961732436	0.2037778299998252	0	0	0	1.179725985587657	-5.03277360829714	-8.690078711823633	-0.3193210990804602	-0.005573204550041068	0	0	0	0	0	0	41.97242332284233	-41.97242332284233	4.954038418446266	84.3499751145923	85.04596185408045	0	0	41.97242332284233	-41.97242332284233	4.954038418446266	84.3499751145923	85.04596185407172	0	0
27.8399999999995	-1.342049548345653	0.3061798720129493	88.3208207316942	0	0.9399999999999999	0	5.305282879434163	-8.857058811879773	-7.408691832243014	10.64690272869577	0.1858235077553097	0	0	0	1.112269022119869	-4.866515391783978	-8.591715215724474	-0.3780729938776632	-0.006598618556037586	0	0	0	0	0	0	41.97321264639013	-41.97321264639013	4.954062517583441	84.35031596020725	85.04593775494426	0	0	41.97321264639013	-41.97321264639013	4.954062517583441	84.35031596020725	85.04593775493554	0	0
27.85999999999949	-1.396816056634506	0.2868141139371035	88.65519543547421	0	0.9399999999999999	0	4.236563058301961	-8.94854526180479	-7.608677278538601	8.831718970080473	0.1541425746387468	0	0	0	1.07753680680943	-4.550369070755585	-8.090798792515027	-0.3535656269587515	-0.006170884312308239	0	0	0	0	0	0	41.97382114089908	-41.97382114089908	4.954081013347633	84.35057755447727	85.04591925918075	0	0	41.97382114089908	-41.97382114089908	4.954081013347633	84.35057755447727	85.04591925917202	0	0
27.87999999999949	-1.368718943825708	0.3595268453460065	89.0376405579819	0	0.9399999999999999	0	3.110494235416042	-8.854720356226636	-8.45122413627905	7.195790978045382	0.1255902448521949	0	0	0	0.9158190379353551	-4.315049920872971	-7.486681372145234	-0.3219182334788288	-0.005618533096409402	0	0	0	0	0	0	41.97463991633696	-41.97463991633696	4.954106004874229	84.35093102154522	85.04589426765517	0	0	41.97463991633696	-41.97463991633696	4.954106004874229	84.35093102154522	85.04589426764646	0	0
27.89999999999949	-1.277000607790937	0.5005021341111561	89.50552088758309	0	0.9399999999999999	0	2.236348394639643	-9.031247294464137	-10.04782518681385	6.578373583391363	0.114814278456397	0	0	0	0.7838692699739189	-4.140172832630456	-6.831022168900575	-0.2754946882144228	-0.004808289381096896	0	0	0	0	0	0	41.97532973090568	-41.97532973090568	4.954127100877111	84.35122939243004	85.0458731716531	0	0	41.97532973090568	-41.97532973090568	4.954127100877111	84.35122939243004	85.0458731716444	0	0
27.91999999999949	-1.075025158412957	0.6970866476256146	89.91459357213566	0	0.9399999999999999	0	1.550994995534803	-9.269671463094443	-11.5488296894833	6.509375281485505	0.1136100309098548	0	0	0	0.5966599733689318	-4.112256030024763	-6.457397214206576	-0.02472299846762658	-0.0004314977242255965	0	0	0	0	0	0	41.97554713678399	-41.97554713678399	4.954133722053553	84.3513230388496	85.04586655047693	0	0	41.97554713678399	-41.97554713678399	4.954133722053553	84.3513230388496	85.04586655046822	0	0
27.93999999999949	-1.077870324085748	0.7159448453560386	89.90427120136727	0	0.9399999999999999	0	1.202234628716646	-9.608299129294972	-11.86178194915311	6.324948647745426	0.1103911789227207	0	0	0	0.6283805280438732	-4.044773761736955	-6.817606714206791	0.7152156476876829	0.01248286791393383	0	0	0	0	0	0	41.97608954623516	-41.97608954623516	4.954150199021199	84.3515560802889	85.04585007350995	0	0	41.97608954623516	-41.97608954623516	4.954150199021199	84.3515560802889	85.04585007350126	0	0
27.95999999999949	-0.8952074639295478	0.7103297500455019	89.89638113574426	0	0.9399999999999999	0	0.934721853598284	-9.609659819469288	-12.13671001093407	6.097328631608354	0.1064184601976862	0	0	0	0.6509649672571198	-4.125376698493012	-7.228783418165045	1.337588841143097	0.02334532931588244	0	0	0	0	0	0	41.97666414422439	-41.97666414422439	4.95416766640183	84.35180312961815	85.04583260613005	0	0	41.97666414422439	-41.97666414422439	4.95416766640183	84.35180312961815	85.04583260612134	0	0
27.97999999999949	-0.6547659711836501	0.3554518958980965	89.64884154505077	0	0.9399999999999999	0	1.321491788629185	-9.346004765782927	-12.10695109991319	6.547340725801627	0.1142726529151536	0	0	0	0.9800892179771894	-4.373565949827458	-7.464577155258421	1.571721238949312	0.02743171054319003	0	0	0	0	0	0	41.9771467380202	-41.9771467380202	4.954182362263317	84.3520109800979	85.04581791026924	0	0	41.9771467380202	-41.9771467380202	4.954182362263317	84.3520109800979	85.04581791026054	0	0
27.99999999999949	-0.5913369121032356	0.4171973422579208	89.51312774307446	0	0.9399999999999999	0	1.654389573559486	-9.161577237336157	-11.60114539383935	7.592753406223886	0.1325185462306213	0	0	0	0.9269868711227791	-4.435751186478295	-7.569159152750235	2.404776150120003	0.04197126159302748	0	0	0	0	0	0	41.97797434151963	-41.97797434151963	4.954207488093183	84.3523663463728	85.04579278444039	0	0	41.97797434151963	-41.97797434151963	4.954207488093183	84.3523663463728	85.0457927844317	0	0
